<svg xmlns="http://www.w3.org/2000/svg" viewBox="0 0 600 200">
  <!-- DAPE Logo (Simulated based on user request) -->
  <path fill="#1e40af" d="M50 50 C50 10 250 10 250 50 C250 70 200 70 200 70 L180 70 A10 10 0 0 1 180 50 L200 50 C220 50 220 30 150 30 C80 30 80 50 100 50 L120 50 A10 10 0 0 1 120 70 L100 70 C50 70 50 50 50 50 Z" transform="translate(0, -20) scale(1.8)" />
  <path fill="#1e40af" d="M50 110 L120 110 C150 110 160 130 160 155 C160 180 150 200 120 200 L50 200 Z M80 135 L80 175 L110 175 C125 175 125 165 125 155 C125 145 125 135 110 135 Z" />
  <path fill="#1e40af" d="M170 200 L200 110 L230 110 L260 200 L230 200 L225 180 L205 180 L200 200 Z M215 135 L210 160 L220 160 Z" />
  <path fill="#1e40af" d="M270 110 L330 110 C360 110 360 135 360 145 C360 155 350 165 330 165 L300 165 L300 200 L270 200 Z M300 135 L300 145 L320 145 C330 145 330 140 330 140 C330 140 330 135 320 135 Z" />
  <path fill="#1e40af" d="M370 110 L450 110 L450 135 L400 135 L400 145 L440 145 L440 170 L400 170 L400 175 L450 175 L450 200 L370 200 Z" />
</svg>